solid OpenSCAD_Model
  facet normal -1 0 0
    outer loop
      vertex -27 -10.05 -2
      vertex -27 -10.05 2
      vertex -27 10 -2
    endloop
  endfacet
  facet normal -1 0 0
    outer loop
      vertex -27 10 -2
      vertex -27 -10.05 2
      vertex -27 10 2
    endloop
  endfacet
  facet normal -1.22461e-16 -1 0
    outer loop
      vertex -26.9937 -10.05 -2
      vertex -26.9937 -10.05 2
      vertex -27 -10.05 2
    endloop
  endfacet
  facet normal -1.22461e-16 -1 0
    outer loop
      vertex -27 -10.05 -2
      vertex -26.9937 -10.05 -2
      vertex -27 -10.05 2
    endloop
  endfacet
  facet normal 0 0 -1
    outer loop
      vertex -27 -10.05 -2
      vertex -27 10 -2
      vertex -26.9937 -10.05 -2
    endloop
  endfacet
  facet normal 0 0 -1
    outer loop
      vertex -26.9937 -10.05 -2
      vertex -27 10 -2
      vertex -26.9882 10 -2
    endloop
  endfacet
  facet normal 0 0 -1
    outer loop
      vertex -26.9882 10 -2
      vertex -26.9961 10.1256 -2
      vertex -26.9021 10.618 -2
    endloop
  endfacet
  facet normal 0 0 -1
    outer loop
      vertex -26.9882 10 -2
      vertex -26.9021 10.618 -2
      vertex -26.9937 -10.05 -2
    endloop
  endfacet
  facet normal 0 0 -1
    outer loop
      vertex -26.9937 -10.05 -2
      vertex -26.9021 10.618 -2
      vertex -26.6887 11.0717 -2
    endloop
  endfacet
  facet normal 0 0 -1
    outer loop
      vertex -26.9937 -10.05 -2
      vertex -26.6887 11.0717 -2
      vertex -26.3691 11.4579 -2
    endloop
  endfacet
  facet normal 0 0 -1
    outer loop
      vertex -26.9937 -10.05 -2
      vertex -26.3691 11.4579 -2
      vertex -25.9635 11.7526 -2
    endloop
  endfacet
  facet normal 0 0 -1
    outer loop
      vertex -26.9937 -10.05 -2
      vertex -25.9635 11.7526 -2
      vertex -25.4974 11.9372 -2
    endloop
  endfacet
  facet normal 0 0 -1
    outer loop
      vertex -26.9937 -10.05 -2
      vertex -25.4974 11.9372 -2
      vertex -25.05 11.9937 -2
    endloop
  endfacet
  facet normal 0 0 -1
    outer loop
      vertex -25.05 11.9937 -2
      vertex -25.05 12 -2
      vertex 25 12 -2
    endloop
  endfacet
  facet normal 0 0 -1
    outer loop
      vertex -25.05 11.9937 -2
      vertex 25 12 -2
      vertex -26.9937 -10.05 -2
    endloop
  endfacet
  facet normal 0 0 -1
    outer loop
      vertex -26.9937 -10.05 -2
      vertex 25 12 -2
      vertex 25 11.9882 -2
    endloop
  endfacet
  facet normal 0 0 -1
    outer loop
      vertex -26.9937 -10.05 -2
      vertex 25 11.9882 -2
      vertex 25.1256 11.9961 -2
    endloop
  endfacet
  facet normal 0 0 -1
    outer loop
      vertex -26.9937 -10.05 -2
      vertex 25.1256 11.9961 -2
      vertex 25.618 11.9021 -2
    endloop
  endfacet
  facet normal 0 0 -1
    outer loop
      vertex -26.9937 -10.05 -2
      vertex 25.618 11.9021 -2
      vertex 26.0717 11.6887 -2
    endloop
  endfacet
  facet normal 0 0 -1
    outer loop
      vertex 23 10 -2
      vertex 26.0717 11.6887 -2
      vertex 26.4579 11.3691 -2
    endloop
  endfacet
  facet normal 0 0 -1
    outer loop
      vertex 23.618 9.90211 -2
      vertex 26.4579 11.3691 -2
      vertex 26.7526 10.9635 -2
    endloop
  endfacet
  facet normal 0 0 -1
    outer loop
      vertex 24.1756 9.61803 -2
      vertex 26.7526 10.9635 -2
      vertex 26.9372 10.4974 -2
    endloop
  endfacet
  facet normal 0 0 -1
    outer loop
      vertex 26.9882 -10 -2
      vertex 27 10.05 -2
      vertex 27 -10 -2
    endloop
  endfacet
  facet normal 0 0 -1
    outer loop
      vertex 24.618 6.82443 -2
      vertex 27 10.05 -2
      vertex 26.9882 -10 -2
    endloop
  endfacet
  facet normal 0 0 -1
    outer loop
      vertex 23.618 9.90211 -2
      vertex 26.7526 10.9635 -2
      vertex 24.1756 9.61803 -2
    endloop
  endfacet
  facet normal 0 0 -1
    outer loop
      vertex -23.4813 -14.4404 -2
      vertex -22.0148 -16.4589 -2
      vertex -22.8541 -15.5267 -2
    endloop
  endfacet
  facet normal 0 0 -1
    outer loop
      vertex 26.9961 -10.1256 -2
      vertex -26.9937 -10.05 -2
      vertex 26.9882 -10 -2
    endloop
  endfacet
  facet normal 0 0 -1
    outer loop
      vertex -21 -17.1962 -2
      vertex -22.0148 -16.4589 -2
      vertex -23.4813 -14.4404 -2
    endloop
  endfacet
  facet normal 0 0 -1
    outer loop
      vertex -18.6272 -17.9671 -2
      vertex -19.8541 -17.7063 -2
      vertex -23.8689 -13.2475 -2
    endloop
  endfacet
  facet normal 0 0 -1
    outer loop
      vertex -18 -12 -2
      vertex -18 -17.9671 -2
      vertex -24 -12 -2
    endloop
  endfacet
  facet normal 0 0 -1
    outer loop
      vertex -24 -12 -2
      vertex -18 -17.9671 -2
      vertex -18.6272 -17.9671 -2
    endloop
  endfacet
  facet normal 0 0 -1
    outer loop
      vertex 21.0979 7.38197 -2
      vertex -26.9937 -10.05 -2
      vertex 21 8 -2
    endloop
  endfacet
  facet normal 0 0 -1
    outer loop
      vertex 24.9021 7.38197 -2
      vertex 27 10.05 -2
      vertex 24.618 6.82443 -2
    endloop
  endfacet
  facet normal 0 0 -1
    outer loop
      vertex -26.9937 -10.05 -2
      vertex 21.0979 7.38197 -2
      vertex 26.9882 -10 -2
    endloop
  endfacet
  facet normal 0 0 -1
    outer loop
      vertex 24.1756 9.61803 -2
      vertex 26.9937 10.05 -2
      vertex 24.618 9.17557 -2
    endloop
  endfacet
  facet normal 0 0 -1
    outer loop
      vertex 21.0979 7.38197 -2
      vertex 21.382 6.82443 -2
      vertex 26.9882 -10 -2
    endloop
  endfacet
  facet normal 0 0 -1
    outer loop
      vertex 24.618 9.17557 -2
      vertex 27 10.05 -2
      vertex 24.9021 8.61803 -2
    endloop
  endfacet
  facet normal 0 0 -1
    outer loop
      vertex 21.382 6.82443 -2
      vertex 21.8244 6.38197 -2
      vertex 26.9882 -10 -2
    endloop
  endfacet
  facet normal 0 0 -1
    outer loop
      vertex 21.8244 6.38197 -2
      vertex 22.382 6.09789 -2
      vertex 26.9882 -10 -2
    endloop
  endfacet
  facet normal 0 0 -1
    outer loop
      vertex 22.382 6.09789 -2
      vertex 23 6 -2
      vertex 26.9882 -10 -2
    endloop
  endfacet
  facet normal 0 0 -1
    outer loop
      vertex 24.9021 8.61803 -2
      vertex 27 10.05 -2
      vertex 25 8 -2
    endloop
  endfacet
  facet normal 0 0 -1
    outer loop
      vertex 23 6 -2
      vertex 23.618 6.09789 -2
      vertex 26.9882 -10 -2
    endloop
  endfacet
  facet normal 0 0 -1
    outer loop
      vertex 25 8 -2
      vertex 27 10.05 -2
      vertex 24.9021 7.38197 -2
    endloop
  endfacet
  facet normal 0 0 -1
    outer loop
      vertex 23.618 6.09789 -2
      vertex 24.1756 6.38197 -2
      vertex 26.9882 -10 -2
    endloop
  endfacet
  facet normal 0 0 -1
    outer loop
      vertex 24.1756 6.38197 -2
      vertex 24.618 6.82443 -2
      vertex 26.9882 -10 -2
    endloop
  endfacet
  facet normal 0 0 -1
    outer loop
      vertex 24.618 9.17557 -2
      vertex 26.9937 10.05 -2
      vertex 27 10.05 -2
    endloop
  endfacet
  facet normal 0 0 -1
    outer loop
      vertex 23 10 -2
      vertex 26.4579 11.3691 -2
      vertex 23.618 9.90211 -2
    endloop
  endfacet
  facet normal 0 0 -1
    outer loop
      vertex 22.382 9.90211 -2
      vertex 26.0717 11.6887 -2
      vertex 23 10 -2
    endloop
  endfacet
  facet normal 0 0 -1
    outer loop
      vertex 21.382 9.17557 -2
      vertex -26.9937 -10.05 -2
      vertex 21.8244 9.61803 -2
    endloop
  endfacet
  facet normal 0 0 -1
    outer loop
      vertex -26.9937 -10.05 -2
      vertex 26.0717 11.6887 -2
      vertex 22.382 9.90211 -2
    endloop
  endfacet
  facet normal 0 0 -1
    outer loop
      vertex -26.9937 -10.05 -2
      vertex 22.382 9.90211 -2
      vertex 21.8244 9.61803 -2
    endloop
  endfacet
  facet normal 0 0 -1
    outer loop
      vertex 21.0979 8.61803 -2
      vertex -26.9937 -10.05 -2
      vertex 21.382 9.17557 -2
    endloop
  endfacet
  facet normal 0 0 -1
    outer loop
      vertex 24.1756 9.61803 -2
      vertex 26.9372 10.4974 -2
      vertex 26.9937 10.05 -2
    endloop
  endfacet
  facet normal 0 0 -1
    outer loop
      vertex -26.9937 -10.05 -2
      vertex 26.9961 -10.1256 -2
      vertex 26.9021 -10.618 -2
    endloop
  endfacet
  facet normal 0 0 -1
    outer loop
      vertex -26.9937 -10.05 -2
      vertex 26.9021 -10.618 -2
      vertex 26.6887 -11.0717 -2
    endloop
  endfacet
  facet normal 0 0 -1
    outer loop
      vertex -26.9937 -10.05 -2
      vertex 26.6887 -11.0717 -2
      vertex 26.3691 -11.4579 -2
    endloop
  endfacet
  facet normal 0 0 -1
    outer loop
      vertex -26.9937 -10.05 -2
      vertex 26.3691 -11.4579 -2
      vertex 25.9635 -11.7526 -2
    endloop
  endfacet
  facet normal 0 0 -1
    outer loop
      vertex -26.9937 -10.05 -2
      vertex 25.9635 -11.7526 -2
      vertex 25.4974 -11.9372 -2
    endloop
  endfacet
  facet normal 0 0 -1
    outer loop
      vertex -26.9937 -10.05 -2
      vertex 25.4974 -11.9372 -2
      vertex 25.05 -11.9937 -2
    endloop
  endfacet
  facet normal 0 0 -1
    outer loop
      vertex -26.9937 -10.05 -2
      vertex 25.05 -11.9937 -2
      vertex 25.05 -12 -2
    endloop
  endfacet
  facet normal 0 0 -1
    outer loop
      vertex -26.9937 -10.05 -2
      vertex 25.05 -12 -2
      vertex -18 -12 -2
    endloop
  endfacet
  facet normal 0 0 -1
    outer loop
      vertex -26.9937 -10.05 -2
      vertex -18 -12 -2
      vertex -24 -12 -2
    endloop
  endfacet
  facet normal 0 0 -1
    outer loop
      vertex -25 -12 -2
      vertex -25 -11.9882 -2
      vertex -24 -12 -2
    endloop
  endfacet
  facet normal 0 0 -1
    outer loop
      vertex -25.618 -11.9021 -2
      vertex -26.9937 -10.05 -2
      vertex -25.1256 -11.9961 -2
    endloop
  endfacet
  facet normal 0 0 -1
    outer loop
      vertex -24 -12 -2
      vertex -18.6272 -17.9671 -2
      vertex -23.8689 -13.2475 -2
    endloop
  endfacet
  facet normal 0 0 -1
    outer loop
      vertex -25.1256 -11.9961 -2
      vertex -26.9937 -10.05 -2
      vertex -25 -11.9882 -2
    endloop
  endfacet
  facet normal 0 0 -1
    outer loop
      vertex -25 -11.9882 -2
      vertex -26.9937 -10.05 -2
      vertex -24 -12 -2
    endloop
  endfacet
  facet normal 0 0 -1
    outer loop
      vertex -23.8689 -13.2475 -2
      vertex -19.8541 -17.7063 -2
      vertex -21 -17.1962 -2
    endloop
  endfacet
  facet normal 0 0 -1
    outer loop
      vertex -23.8689 -13.2475 -2
      vertex -21 -17.1962 -2
      vertex -23.4813 -14.4404 -2
    endloop
  endfacet
  facet normal 0 0 -1
    outer loop
      vertex 21 8 -2
      vertex -26.9937 -10.05 -2
      vertex 21.0979 8.61803 -2
    endloop
  endfacet
  facet normal 0 0 -1
    outer loop
      vertex -26.9937 -10.05 -2
      vertex -25.618 -11.9021 -2
      vertex -26.0717 -11.6887 -2
    endloop
  endfacet
  facet normal 0 0 -1
    outer loop
      vertex -26.9937 -10.05 -2
      vertex -26.0717 -11.6887 -2
      vertex -26.4579 -11.3691 -2
    endloop
  endfacet
  facet normal 0 0 -1
    outer loop
      vertex -26.9937 -10.05 -2
      vertex -26.4579 -11.3691 -2
      vertex -26.7526 -10.9635 -2
    endloop
  endfacet
  facet normal 0 0 -1
    outer loop
      vertex -26.9937 -10.05 -2
      vertex -26.7526 -10.9635 -2
      vertex -26.9372 -10.4974 -2
    endloop
  endfacet
  facet normal 6.12303e-17 1 0
    outer loop
      vertex -26.9882 10 2
      vertex -26.9882 10 -2
      vertex -27 10 2
    endloop
  endfacet
  facet normal 6.12303e-17 1 0
    outer loop
      vertex -27 10 2
      vertex -26.9882 10 -2
      vertex -27 10 -2
    endloop
  endfacet
  facet normal 0 0 1
    outer loop
      vertex -26.9937 -10.05 2
      vertex -26.9372 -10.4974 2
      vertex -26.7526 -10.9635 2
    endloop
  endfacet
  facet normal 0 0 1
    outer loop
      vertex -26.0717 -11.6887 2
      vertex -26.9937 -10.05 2
      vertex -26.4579 -11.3691 2
    endloop
  endfacet
  facet normal 0 0 1
    outer loop
      vertex -26.4579 -11.3691 2
      vertex -26.9937 -10.05 2
      vertex -26.7526 -10.9635 2
    endloop
  endfacet
  facet normal 0 0 1
    outer loop
      vertex -25.618 -11.9021 2
      vertex -26.9937 -10.05 2
      vertex -26.0717 -11.6887 2
    endloop
  endfacet
  facet normal 0 0 1
    outer loop
      vertex -25.1256 -11.9961 2
      vertex -26.9937 -10.05 2
      vertex -25.618 -11.9021 2
    endloop
  endfacet
  facet normal 0 0 1
    outer loop
      vertex -25 -11.9882 2
      vertex -26.9937 -10.05 2
      vertex -25.1256 -11.9961 2
    endloop
  endfacet
  facet normal 0 0 1
    outer loop
      vertex -24 -12 2
      vertex -26.9937 -10.05 2
      vertex -25 -11.9882 2
    endloop
  endfacet
  facet normal 0 0 1
    outer loop
      vertex -24 -12 2
      vertex -25 -11.9882 2
      vertex -25 -12 2
    endloop
  endfacet
  facet normal 0 0 1
    outer loop
      vertex -18 -12 2
      vertex -26.9937 -10.05 2
      vertex -24 -12 2
    endloop
  endfacet
  facet normal 0 0 1
    outer loop
      vertex -23.4813 -14.4404 2
      vertex -24 -12 2
      vertex -23.8689 -13.2475 2
    endloop
  endfacet
  facet normal 0 0 1
    outer loop
      vertex -22.8541 -15.5267 2
      vertex -24 -12 2
      vertex -23.4813 -14.4404 2
    endloop
  endfacet
  facet normal 0 0 1
    outer loop
      vertex -22.0148 -16.4589 2
      vertex -24 -12 2
      vertex -22.8541 -15.5267 2
    endloop
  endfacet
  facet normal 0 0 1
    outer loop
      vertex -21 -17.1962 2
      vertex -24 -12 2
      vertex -22.0148 -16.4589 2
    endloop
  endfacet
  facet normal 0 0 1
    outer loop
      vertex -19.8541 -17.7063 2
      vertex -24 -12 2
      vertex -21 -17.1962 2
    endloop
  endfacet
  facet normal 0 0 1
    outer loop
      vertex -18.6272 -17.9671 2
      vertex -24 -12 2
      vertex -19.8541 -17.7063 2
    endloop
  endfacet
  facet normal 0 0 1
    outer loop
      vertex -18 -17.9671 2
      vertex -24 -12 2
      vertex -18.6272 -17.9671 2
    endloop
  endfacet
  facet normal 0 0 1
    outer loop
      vertex -18 -12 2
      vertex -24 -12 2
      vertex -18 -17.9671 2
    endloop
  endfacet
  facet normal 0 0 1
    outer loop
      vertex 25.05 -12 2
      vertex -26.9937 -10.05 2
      vertex -18 -12 2
    endloop
  endfacet
  facet normal 0 0 1
    outer loop
      vertex 25.05 -11.9937 2
      vertex -26.9937 -10.05 2
      vertex 25.05 -12 2
    endloop
  endfacet
  facet normal 0 0 1
    outer loop
      vertex 25.4974 -11.9372 2
      vertex -26.9937 -10.05 2
      vertex 25.05 -11.9937 2
    endloop
  endfacet
  facet normal 0 0 1
    outer loop
      vertex 25.9635 -11.7526 2
      vertex -26.9937 -10.05 2
      vertex 25.4974 -11.9372 2
    endloop
  endfacet
  facet normal 0 0 1
    outer loop
      vertex 26.3691 -11.4579 2
      vertex -26.9937 -10.05 2
      vertex 25.9635 -11.7526 2
    endloop
  endfacet
  facet normal 0 0 1
    outer loop
      vertex 26.6887 -11.0717 2
      vertex -26.9937 -10.05 2
      vertex 26.3691 -11.4579 2
    endloop
  endfacet
  facet normal 0 0 1
    outer loop
      vertex 26.9021 -10.618 2
      vertex -26.9937 -10.05 2
      vertex 26.6887 -11.0717 2
    endloop
  endfacet
  facet normal 0 0 1
    outer loop
      vertex 26.9961 -10.1256 2
      vertex -26.9937 -10.05 2
      vertex 26.9021 -10.618 2
    endloop
  endfacet
  facet normal 0 0 1
    outer loop
      vertex 26.9882 -10 2
      vertex -26.9937 -10.05 2
      vertex 26.9961 -10.1256 2
    endloop
  endfacet
  facet normal 0 0 1
    outer loop
      vertex -20.9998 -9 2
      vertex -26.9937 -10.05 2
      vertex 26.9882 -10 2
    endloop
  endfacet
  facet normal 0 0 1
    outer loop
      vertex 27 10.05 2
      vertex 26.9882 -10 2
      vertex 27 -10 2
    endloop
  endfacet
  facet normal 0 0 1
    outer loop
      vertex -11 -9 2
      vertex -14.9998 -3 2
      vertex -20.9998 -9 2
    endloop
  endfacet
  facet normal 0 0 1
    outer loop
      vertex -25.05 12 2
      vertex -25.05 11.9937 2
      vertex 25 12 2
    endloop
  endfacet
  facet normal 0 0 1
    outer loop
      vertex -26.9882 10 2
      vertex -27 10 2
      vertex -26.9937 -10.05 2
    endloop
  endfacet
  facet normal 0 0 1
    outer loop
      vertex -25.9635 11.7526 2
      vertex -26.9937 -10.05 2
      vertex -25.4974 11.9372 2
    endloop
  endfacet
  facet normal 0 0 1
    outer loop
      vertex -26.3691 11.4579 2
      vertex -26.9937 -10.05 2
      vertex -25.9635 11.7526 2
    endloop
  endfacet
  facet normal 0 0 1
    outer loop
      vertex -26.6887 11.0717 2
      vertex -26.9937 -10.05 2
      vertex -26.3691 11.4579 2
    endloop
  endfacet
  facet normal 0 0 1
    outer loop
      vertex -26.9021 10.618 2
      vertex -26.9937 -10.05 2
      vertex -26.6887 11.0717 2
    endloop
  endfacet
  facet normal 0 0 1
    outer loop
      vertex -26.9882 10 2
      vertex -26.9937 -10.05 2
      vertex -26.9021 10.618 2
    endloop
  endfacet
  facet normal 0 0 1
    outer loop
      vertex -26.9961 10.1256 2
      vertex -26.9882 10 2
      vertex -26.9021 10.618 2
    endloop
  endfacet
  facet normal 0 0 1
    outer loop
      vertex -27 -10.05 2
      vertex -26.9937 -10.05 2
      vertex -27 10 2
    endloop
  endfacet
  facet normal 0 0 1
    outer loop
      vertex -25.05 11.9937 2
      vertex -23 5.0002 2
      vertex 25 12 2
    endloop
  endfacet
  facet normal 0 0 1
    outer loop
      vertex -25.05 11.9937 2
      vertex -26.9937 -10.05 2
      vertex -23 5.0002 2
    endloop
  endfacet
  facet normal 0 0 1
    outer loop
      vertex -23 5.0002 2
      vertex -12.9998 5.0002 2
      vertex 25 12 2
    endloop
  endfacet
  facet normal 0 0 1
    outer loop
      vertex -12.9998 5.0002 2
      vertex -12.9998 3 2
      vertex 25 12 2
    endloop
  endfacet
  facet normal 0 0 1
    outer loop
      vertex 22.382 9.90211 2
      vertex 26.4579 11.3691 2
      vertex 26.0717 11.6887 2
    endloop
  endfacet
  facet normal 0 0 1
    outer loop
      vertex 24.1756 9.61803 2
      vertex 26.9937 10.05 2
      vertex 26.9372 10.4974 2
    endloop
  endfacet
  facet normal 0 0 1
    outer loop
      vertex -2.9998 1.0002 2
      vertex 25.1256 11.9961 2
      vertex 25 11.9882 2
    endloop
  endfacet
  facet normal 0 0 1
    outer loop
      vertex -20.9998 -0.9998 2
      vertex -14.9998 -0.9998 2
      vertex -12.9998 3 2
    endloop
  endfacet
  facet normal 0 0 1
    outer loop
      vertex -12.9998 3 2
      vertex -20.9998 3 2
      vertex -20.9998 -0.9998 2
    endloop
  endfacet
  facet normal 0 0 1
    outer loop
      vertex -8.9998 -9 2
      vertex -11 -9 2
      vertex 26.9882 -10 2
    endloop
  endfacet
  facet normal 0 0 1
    outer loop
      vertex -23 -9 2
      vertex -26.9937 -10.05 2
      vertex -20.9998 -9 2
    endloop
  endfacet
  facet normal 0 0 1
    outer loop
      vertex -8.9998 1.0002 2
      vertex -7 1.0002 2
      vertex 25 12 2
    endloop
  endfacet
  facet normal 0 0 1
    outer loop
      vertex -12.9998 3 2
      vertex -11 1.0002 2
      vertex 25 12 2
    endloop
  endfacet
  facet normal 0 0 1
    outer loop
      vertex -12.9998 3 2
      vertex -14.9998 -0.9998 2
      vertex -11 1.0002 2
    endloop
  endfacet
  facet normal 0 0 1
    outer loop
      vertex -11 1.0002 2
      vertex -8.9998 1.0002 2
      vertex 25 12 2
    endloop
  endfacet
  facet normal 0 0 1
    outer loop
      vertex -7 1.0002 2
      vertex -2.9998 1.0002 2
      vertex 25 12 2
    endloop
  endfacet
  facet normal 0 0 1
    outer loop
      vertex -2.9998 1.0002 2
      vertex 25.618 11.9021 2
      vertex 25.1256 11.9961 2
    endloop
  endfacet
  facet normal 0 0 1
    outer loop
      vertex -20.9998 -3 2
      vertex -20.9998 -9 2
      vertex -14.9998 -3 2
    endloop
  endfacet
  facet normal 0 0 1
    outer loop
      vertex 9.0002 -6.9998 2
      vertex 9.0002 -9 2
      vertex 15 -9 2
    endloop
  endfacet
  facet normal 0 0 1
    outer loop
      vertex -7 -0.9998 2
      vertex -7 1.0002 2
      vertex -8.9998 -0.9998 2
    endloop
  endfacet
  facet normal 0 0 1
    outer loop
      vertex -2.9998 1.0002 2
      vertex 25 11.9882 2
      vertex 25 12 2
    endloop
  endfacet
  facet normal 0 0 1
    outer loop
      vertex 21 8 2
      vertex 21.0979 8.61803 2
      vertex -2.9998 -0.9998 2
    endloop
  endfacet
  facet normal 0 0 1
    outer loop
      vertex 11.0002 -0.9998 2
      vertex 13 -0.9998 2
      vertex 9.0002 1.0002 2
    endloop
  endfacet
  facet normal 0 0 1
    outer loop
      vertex 21.382 9.17557 2
      vertex 21.8244 9.61803 2
      vertex -2.9998 1.0002 2
    endloop
  endfacet
  facet normal 0 0 1
    outer loop
      vertex -0.9998 -0.9998 2
      vertex -0.9998 -3 2
      vertex 1 -0.9998 2
    endloop
  endfacet
  facet normal 0 0 1
    outer loop
      vertex -3 -3 2
      vertex -8.9998 -9 2
      vertex -0.9998 -3 2
    endloop
  endfacet
  facet normal 0 0 1
    outer loop
      vertex -8.9998 1.0002 2
      vertex -8.9998 -0.9998 2
      vertex -7 1.0002 2
    endloop
  endfacet
  facet normal 0 0 1
    outer loop
      vertex 24.1756 9.61803 2
      vertex 24.618 9.17557 2
      vertex 26.9937 10.05 2
    endloop
  endfacet
  facet normal 0 0 1
    outer loop
      vertex 9.0002 -9 2
      vertex 3 -9 2
      vertex 26.9882 -10 2
    endloop
  endfacet
  facet normal 0 0 1
    outer loop
      vertex -11 -9 2
      vertex -20.9998 -9 2
      vertex 26.9882 -10 2
    endloop
  endfacet
  facet normal 0 0 1
    outer loop
      vertex -2.9998 1.0002 2
      vertex -2.9998 -0.9998 2
      vertex 21.0979 8.61803 2
    endloop
  endfacet
  facet normal 0 0 1
    outer loop
      vertex -8.9998 -3 2
      vertex -8.9998 -9 2
      vertex -6.9998 -3 2
    endloop
  endfacet
  facet normal 0 0 1
    outer loop
      vertex 15 1.0002 2
      vertex 23 6 2
      vertex 22.382 6.09789 2
    endloop
  endfacet
  facet normal 0 0 1
    outer loop
      vertex -3 -3 2
      vertex -3 -1 2
      vertex -6.9998 -3 2
    endloop
  endfacet
  facet normal 0 0 1
    outer loop
      vertex 24.618 6.82443 2
      vertex 24.1756 6.38197 2
      vertex 21.0002 1.0002 2
    endloop
  endfacet
  facet normal 0 0 1
    outer loop
      vertex 1 -0.9998 2
      vertex 3 1.0002 2
      vertex -0.9998 -0.9998 2
    endloop
  endfacet
  facet normal 0 0 1
    outer loop
      vertex 3 -0.9998 2
      vertex 3 1.0002 2
      vertex 1 -0.9998 2
    endloop
  endfacet
  facet normal 0 0 1
    outer loop
      vertex 9.0002 1.0002 2
      vertex 9.0002 -0.9998 2
      vertex 11.0002 -0.9998 2
    endloop
  endfacet
  facet normal 0 0 1
    outer loop
      vertex 15 1.0002 2
      vertex 21.0002 1.0002 2
      vertex 23.618 6.09789 2
    endloop
  endfacet
  facet normal 0 0 1
    outer loop
      vertex 21.0002 -9 2
      vertex 15 -9 2
      vertex 26.9882 -10 2
    endloop
  endfacet
  facet normal 0 0 1
    outer loop
      vertex 24.618 9.17557 2
      vertex 27 10.05 2
      vertex 26.9937 10.05 2
    endloop
  endfacet
  facet normal 0 0 1
    outer loop
      vertex 15.0002 -6.9998 2
      vertex 21.0002 -6.9998 2
      vertex 15.0002 -5 2
    endloop
  endfacet
  facet normal 0 0 1
    outer loop
      vertex 9.0002 -6.9998 2
      vertex 13 -7 2
      vertex 3.0002 -5 2
    endloop
  endfacet
  facet normal 0 0 1
    outer loop
      vertex 3.0002 -5 2
      vertex 3.0002 -6.9998 2
      vertex 9.0002 -6.9998 2
    endloop
  endfacet
  facet normal 0 0 1
    outer loop
      vertex 15 -9 2
      vertex 9.0002 -9 2
      vertex 26.9882 -10 2
    endloop
  endfacet
  facet normal 0 0 1
    outer loop
      vertex 3 -9 2
      vertex -8.9998 -9 2
      vertex 26.9882 -10 2
    endloop
  endfacet
  facet normal 0 0 1
    outer loop
      vertex 3 -7 2
      vertex -8.9998 -9 2
      vertex 3 -9 2
    endloop
  endfacet
  facet normal 0 0 1
    outer loop
      vertex 21.0979 7.38197 2
      vertex 21 8 2
      vertex -2.9998 -0.9998 2
    endloop
  endfacet
  facet normal 0 0 1
    outer loop
      vertex 15 1.0002 2
      vertex 9.0002 1.0002 2
      vertex 13 -0.9998 2
    endloop
  endfacet
  facet normal 0 0 1
    outer loop
      vertex 21.8244 6.38197 2
      vertex 9.0002 1.0002 2
      vertex 15 1.0002 2
    endloop
  endfacet
  facet normal 0 0 1
    outer loop
      vertex 23.0002 -0.9998 2
      vertex 23.0002 -5 2
      vertex 26.9882 -10 2
    endloop
  endfacet
  facet normal 0 0 1
    outer loop
      vertex 27 10.05 2
      vertex 23.0002 -0.9998 2
      vertex 26.9882 -10 2
    endloop
  endfacet
  facet normal 0 0 1
    outer loop
      vertex 27 10.05 2
      vertex 21.0002 1.0002 2
      vertex 23.0002 -0.9998 2
    endloop
  endfacet
  facet normal 0 0 1
    outer loop
      vertex 15 -0.9998 2
      vertex 15 1.0002 2
      vertex 13 -0.9998 2
    endloop
  endfacet
  facet normal 0 0 1
    outer loop
      vertex 11.0002 -5 2
      vertex 3.0002 -5 2
      vertex 13 -7 2
    endloop
  endfacet
  facet normal 0 0 1
    outer loop
      vertex 21.0979 7.38197 2
      vertex -2.9998 -0.9998 2
      vertex 3 1.0002 2
    endloop
  endfacet
  facet normal 0 0 1
    outer loop
      vertex 3 -7 2
      vertex 1 -7 2
      vertex -8.9998 -9 2
    endloop
  endfacet
  facet normal 0 0 1
    outer loop
      vertex 15 -9 2
      vertex 15 -7 2
      vertex 13 -7 2
    endloop
  endfacet
  facet normal 0 0 1
    outer loop
      vertex 13 -7 2
      vertex 11.0002 -0.9998 2
      vertex 11.0002 -5 2
    endloop
  endfacet
  facet normal 0 0 1
    outer loop
      vertex 13 -7 2
      vertex 13 -0.9998 2
      vertex 11.0002 -0.9998 2
    endloop
  endfacet
  facet normal 0 0 1
    outer loop
      vertex 21.0979 8.61803 2
      vertex 21.382 9.17557 2
      vertex -2.9998 1.0002 2
    endloop
  endfacet
  facet normal 0 0 1
    outer loop
      vertex 23.618 9.90211 2
      vertex 24.1756 9.61803 2
      vertex 26.7526 10.9635 2
    endloop
  endfacet
  facet normal 0 0 1
    outer loop
      vertex -2.9998 -0.9998 2
      vertex -0.9998 -0.9998 2
      vertex 3 1.0002 2
    endloop
  endfacet
  facet normal 0 0 1
    outer loop
      vertex 23 10 2
      vertex 26.7526 10.9635 2
      vertex 26.4579 11.3691 2
    endloop
  endfacet
  facet normal 0 0 1
    outer loop
      vertex -11 -9 2
      vertex -11 1.0002 2
      vertex -14.9998 -0.9998 2
    endloop
  endfacet
  facet normal 0 0 1
    outer loop
      vertex 23 10 2
      vertex 23.618 9.90211 2
      vertex 26.7526 10.9635 2
    endloop
  endfacet
  facet normal 0 0 1
    outer loop
      vertex -11 -9 2
      vertex -14.9998 -0.9998 2
      vertex -14.9998 -3 2
    endloop
  endfacet
  facet normal 0 0 1
    outer loop
      vertex 26.7526 10.9635 2
      vertex 24.1756 9.61803 2
      vertex 26.9372 10.4974 2
    endloop
  endfacet
  facet normal 0 0 1
    outer loop
      vertex 24.618 9.17557 2
      vertex 24.9021 8.61803 2
      vertex 27 10.05 2
    endloop
  endfacet
  facet normal 0 0 1
    outer loop
      vertex 22.382 6.09789 2
      vertex 21.8244 6.38197 2
      vertex 15 1.0002 2
    endloop
  endfacet
  facet normal 0 0 1
    outer loop
      vertex 23.0002 -5 2
      vertex 15.0002 -5 2
      vertex 21.0002 -6.9998 2
    endloop
  endfacet
  facet normal 0 0 1
    outer loop
      vertex 24.1756 6.38197 2
      vertex 23.618 6.09789 2
      vertex 21.0002 1.0002 2
    endloop
  endfacet
  facet normal 0 0 1
    outer loop
      vertex 27 10.05 2
      vertex 25 8 2
      vertex 24.9021 7.38197 2
    endloop
  endfacet
  facet normal 0 0 1
    outer loop
      vertex 27 10.05 2
      vertex 24.618 6.82443 2
      vertex 21.0002 1.0002 2
    endloop
  endfacet
  facet normal 0 0 1
    outer loop
      vertex 27 10.05 2
      vertex 24.9021 7.38197 2
      vertex 24.618 6.82443 2
    endloop
  endfacet
  facet normal 0 0 1
    outer loop
      vertex 21.0002 -0.9998 2
      vertex 23.0002 -0.9998 2
      vertex 21.0002 1.0002 2
    endloop
  endfacet
  facet normal 0 0 1
    outer loop
      vertex 23.0002 -5 2
      vertex 21.0002 -6.9998 2
      vertex 26.9882 -10 2
    endloop
  endfacet
  facet normal 0 0 1
    outer loop
      vertex 21.0002 -6.9998 2
      vertex 21.0002 -9 2
      vertex 26.9882 -10 2
    endloop
  endfacet
  facet normal 0 0 1
    outer loop
      vertex 21.382 6.82443 2
      vertex 9.0002 1.0002 2
      vertex 21.8244 6.38197 2
    endloop
  endfacet
  facet normal 0 0 1
    outer loop
      vertex 24.9021 8.61803 2
      vertex 25 8 2
      vertex 27 10.05 2
    endloop
  endfacet
  facet normal 0 0 1
    outer loop
      vertex -6.9998 -3 2
      vertex -8.9998 -9 2
      vertex -3 -3 2
    endloop
  endfacet
  facet normal 0 0 1
    outer loop
      vertex -25.05 11.9937 2
      vertex -25.4974 11.9372 2
      vertex -26.9937 -10.05 2
    endloop
  endfacet
  facet normal 0 0 1
    outer loop
      vertex 3 1.0002 2
      vertex 9.0002 1.0002 2
      vertex 21.0979 7.38197 2
    endloop
  endfacet
  facet normal 0 0 1
    outer loop
      vertex -2.9998 1.0002 2
      vertex 26.0717 11.6887 2
      vertex 25.618 11.9021 2
    endloop
  endfacet
  facet normal 0 0 1
    outer loop
      vertex -2.9998 1.0002 2
      vertex 22.382 9.90211 2
      vertex 26.0717 11.6887 2
    endloop
  endfacet
  facet normal 0 0 1
    outer loop
      vertex 1 -7 2
      vertex 1 -0.9998 2
      vertex -0.9998 -3 2
    endloop
  endfacet
  facet normal 0 0 1
    outer loop
      vertex 1 -7 2
      vertex -0.9998 -3 2
      vertex -8.9998 -9 2
    endloop
  endfacet
  facet normal 0 0 1
    outer loop
      vertex 15 -9 2
      vertex 13 -7 2
      vertex 9.0002 -6.9998 2
    endloop
  endfacet
  facet normal 0 0 1
    outer loop
      vertex -2.9998 1.0002 2
      vertex 21.8244 9.61803 2
      vertex 22.382 9.90211 2
    endloop
  endfacet
  facet normal 0 0 1
    outer loop
      vertex 22.382 9.90211 2
      vertex 23 10 2
      vertex 26.4579 11.3691 2
    endloop
  endfacet
  facet normal 0 0 1
    outer loop
      vertex -6.9998 -1 2
      vertex -6.9998 -3 2
      vertex -3 -1 2
    endloop
  endfacet
  facet normal 0 0 1
    outer loop
      vertex 15 1.0002 2
      vertex 23.618 6.09789 2
      vertex 23 6 2
    endloop
  endfacet
  facet normal 0 0 1
    outer loop
      vertex 21.382 6.82443 2
      vertex 21.0979 7.38197 2
      vertex 9.0002 1.0002 2
    endloop
  endfacet
  facet normal 0 0 1
    outer loop
      vertex -23 -9 2
      vertex -23 5.0002 2
      vertex -26.9937 -10.05 2
    endloop
  endfacet
  facet normal -0.992115 -0.125334 0
    outer loop
      vertex -26.9937 -10.05 -2
      vertex -26.9372 -10.4974 -2
      vertex -26.9937 -10.05 2
    endloop
  endfacet
  facet normal -0.992115 -0.125334 0
    outer loop
      vertex -26.9937 -10.05 2
      vertex -26.9372 -10.4974 -2
      vertex -26.9372 -10.4974 2
    endloop
  endfacet
  facet normal -0.929776 -0.368125 0
    outer loop
      vertex -26.9372 -10.4974 -2
      vertex -26.7526 -10.9635 -2
      vertex -26.9372 -10.4974 2
    endloop
  endfacet
  facet normal -0.929776 -0.368125 0
    outer loop
      vertex -26.9372 -10.4974 2
      vertex -26.7526 -10.9635 -2
      vertex -26.7526 -10.9635 2
    endloop
  endfacet
  facet normal -0.809017 -0.587785 0
    outer loop
      vertex -26.7526 -10.9635 -2
      vertex -26.4579 -11.3691 -2
      vertex -26.7526 -10.9635 2
    endloop
  endfacet
  facet normal -0.809017 -0.587785 0
    outer loop
      vertex -26.7526 -10.9635 2
      vertex -26.4579 -11.3691 -2
      vertex -26.4579 -11.3691 2
    endloop
  endfacet
  facet normal -0.637425 -0.770512 0
    outer loop
      vertex -26.4579 -11.3691 2
      vertex -26.4579 -11.3691 -2
      vertex -26.0717 -11.6887 -2
    endloop
  endfacet
  facet normal -0.637425 -0.770512 0
    outer loop
      vertex -26.0717 -11.6887 2
      vertex -26.4579 -11.3691 2
      vertex -26.0717 -11.6887 -2
    endloop
  endfacet
  facet normal -0.425779 -0.904827 0
    outer loop
      vertex -26.0717 -11.6887 2
      vertex -26.0717 -11.6887 -2
      vertex -25.618 -11.9021 -2
    endloop
  endfacet
  facet normal -0.425779 -0.904827 0
    outer loop
      vertex -25.618 -11.9021 2
      vertex -26.0717 -11.6887 2
      vertex -25.618 -11.9021 -2
    endloop
  endfacet
  facet normal -0.18738 -0.982287 0
    outer loop
      vertex -25.618 -11.9021 2
      vertex -25.618 -11.9021 -2
      vertex -25.1256 -11.9961 -2
    endloop
  endfacet
  facet normal -0.18738 -0.982287 0
    outer loop
      vertex -25.1256 -11.9961 2
      vertex -25.618 -11.9021 2
      vertex -25.1256 -11.9961 -2
    endloop
  endfacet
  facet normal 0.0627886 -0.998027 0
    outer loop
      vertex -25.1256 -11.9961 2
      vertex -25.1256 -11.9961 -2
      vertex -25 -11.9882 -2
    endloop
  endfacet
  facet normal 0.0627886 -0.998027 0
    outer loop
      vertex -25 -11.9882 2
      vertex -25.1256 -11.9961 2
      vertex -25 -11.9882 -2
    endloop
  endfacet
  facet normal -1 1.22461e-16 0
    outer loop
      vertex -25 -11.9882 2
      vertex -25 -11.9882 -2
      vertex -25 -12 2
    endloop
  endfacet
  facet normal -1 1.22461e-16 0
    outer loop
      vertex -25 -12 2
      vertex -25 -11.9882 -2
      vertex -25 -12 -2
    endloop
  endfacet
  facet normal 0 -1 0
    outer loop
      vertex -25 -12 2
      vertex -25 -12 -2
      vertex -24 -12 -2
    endloop
  endfacet
  facet normal 0 -1 0
    outer loop
      vertex -24 -12 2
      vertex -25 -12 2
      vertex -24 -12 -2
    endloop
  endfacet
  facet normal -0.994522 -0.104528 0
    outer loop
      vertex -24 -12 -2
      vertex -23.8689 -13.2475 -2
      vertex -24 -12 2
    endloop
  endfacet
  facet normal -0.994522 -0.104528 0
    outer loop
      vertex -24 -12 2
      vertex -23.8689 -13.2475 -2
      vertex -23.8689 -13.2475 2
    endloop
  endfacet
  facet normal -0.951057 -0.309017 0
    outer loop
      vertex -23.8689 -13.2475 -2
      vertex -23.4813 -14.4404 -2
      vertex -23.8689 -13.2475 2
    endloop
  endfacet
  facet normal -0.951057 -0.309017 0
    outer loop
      vertex -23.8689 -13.2475 2
      vertex -23.4813 -14.4404 -2
      vertex -23.4813 -14.4404 2
    endloop
  endfacet
  facet normal -0.866025 -0.5 0
    outer loop
      vertex -23.4813 -14.4404 -2
      vertex -22.8541 -15.5267 -2
      vertex -23.4813 -14.4404 2
    endloop
  endfacet
  facet normal -0.866025 -0.5 0
    outer loop
      vertex -23.4813 -14.4404 2
      vertex -22.8541 -15.5267 -2
      vertex -22.8541 -15.5267 2
    endloop
  endfacet
  facet normal -0.743145 -0.669131 0
    outer loop
      vertex -22.8541 -15.5267 -2
      vertex -22.0148 -16.4589 -2
      vertex -22.8541 -15.5267 2
    endloop
  endfacet
  facet normal -0.743145 -0.669131 0
    outer loop
      vertex -22.8541 -15.5267 2
      vertex -22.0148 -16.4589 -2
      vertex -22.0148 -16.4589 2
    endloop
  endfacet
  facet normal -0.587785 -0.809017 0
    outer loop
      vertex -22.0148 -16.4589 2
      vertex -22.0148 -16.4589 -2
      vertex -21 -17.1962 -2
    endloop
  endfacet
  facet normal -0.587785 -0.809017 0
    outer loop
      vertex -21 -17.1962 2
      vertex -22.0148 -16.4589 2
      vertex -21 -17.1962 -2
    endloop
  endfacet
  facet normal -0.406737 -0.913545 0
    outer loop
      vertex -21 -17.1962 2
      vertex -21 -17.1962 -2
      vertex -19.8541 -17.7063 -2
    endloop
  endfacet
  facet normal -0.406737 -0.913545 0
    outer loop
      vertex -19.8541 -17.7063 2
      vertex -21 -17.1962 2
      vertex -19.8541 -17.7063 -2
    endloop
  endfacet
  facet normal -0.207912 -0.978148 0
    outer loop
      vertex -19.8541 -17.7063 2
      vertex -19.8541 -17.7063 -2
      vertex -18.6272 -17.9671 -2
    endloop
  endfacet
  facet normal -0.207912 -0.978148 0
    outer loop
      vertex -18.6272 -17.9671 2
      vertex -19.8541 -17.7063 2
      vertex -18.6272 -17.9671 -2
    endloop
  endfacet
  facet normal 0 -1 0
    outer loop
      vertex -18.6272 -17.9671 2
      vertex -18.6272 -17.9671 -2
      vertex -18 -17.9671 -2
    endloop
  endfacet
  facet normal 0 -1 0
    outer loop
      vertex -18 -17.9671 2
      vertex -18.6272 -17.9671 2
      vertex -18 -17.9671 -2
    endloop
  endfacet
  facet normal 1 0 0
    outer loop
      vertex -18 -17.9671 2
      vertex -18 -17.9671 -2
      vertex -18 -12 -2
    endloop
  endfacet
  facet normal 1 0 0
    outer loop
      vertex -18 -12 2
      vertex -18 -17.9671 2
      vertex -18 -12 -2
    endloop
  endfacet
  facet normal 0 -1 0
    outer loop
      vertex -18 -12 2
      vertex -18 -12 -2
      vertex 25.05 -12 -2
    endloop
  endfacet
  facet normal 0 -1 0
    outer loop
      vertex 25.05 -12 2
      vertex -18 -12 2
      vertex 25.05 -12 -2
    endloop
  endfacet
  facet normal 1 -1.83691e-16 0
    outer loop
      vertex 25.05 -11.9937 -2
      vertex 25.05 -11.9937 2
      vertex 25.05 -12 2
    endloop
  endfacet
  facet normal 1 -1.83691e-16 0
    outer loop
      vertex 25.05 -12 -2
      vertex 25.05 -11.9937 -2
      vertex 25.05 -12 2
    endloop
  endfacet
  facet normal 0.125334 -0.992115 0
    outer loop
      vertex 25.05 -11.9937 2
      vertex 25.05 -11.9937 -2
      vertex 25.4974 -11.9372 -2
    endloop
  endfacet
  facet normal 0.125334 -0.992115 0
    outer loop
      vertex 25.4974 -11.9372 2
      vertex 25.05 -11.9937 2
      vertex 25.4974 -11.9372 -2
    endloop
  endfacet
  facet normal 0.368125 -0.929776 0
    outer loop
      vertex 25.4974 -11.9372 2
      vertex 25.4974 -11.9372 -2
      vertex 25.9635 -11.7526 -2
    endloop
  endfacet
  facet normal 0.368125 -0.929776 0
    outer loop
      vertex 25.9635 -11.7526 2
      vertex 25.4974 -11.9372 2
      vertex 25.9635 -11.7526 -2
    endloop
  endfacet
  facet normal 0.587785 -0.809017 0
    outer loop
      vertex 25.9635 -11.7526 2
      vertex 25.9635 -11.7526 -2
      vertex 26.3691 -11.4579 -2
    endloop
  endfacet
  facet normal 0.587785 -0.809017 0
    outer loop
      vertex 26.3691 -11.4579 2
      vertex 25.9635 -11.7526 2
      vertex 26.3691 -11.4579 -2
    endloop
  endfacet
  facet normal 0.770512 -0.637425 0
    outer loop
      vertex 26.3691 -11.4579 2
      vertex 26.3691 -11.4579 -2
      vertex 26.6887 -11.0717 -2
    endloop
  endfacet
  facet normal 0.770512 -0.637425 0
    outer loop
      vertex 26.6887 -11.0717 2
      vertex 26.3691 -11.4579 2
      vertex 26.6887 -11.0717 -2
    endloop
  endfacet
  facet normal 0.904827 -0.425779 0
    outer loop
      vertex 26.6887 -11.0717 2
      vertex 26.6887 -11.0717 -2
      vertex 26.9021 -10.618 -2
    endloop
  endfacet
  facet normal 0.904827 -0.425779 0
    outer loop
      vertex 26.9021 -10.618 2
      vertex 26.6887 -11.0717 2
      vertex 26.9021 -10.618 -2
    endloop
  endfacet
  facet normal 0.982287 -0.18738 0
    outer loop
      vertex 26.9021 -10.618 2
      vertex 26.9021 -10.618 -2
      vertex 26.9961 -10.1256 -2
    endloop
  endfacet
  facet normal 0.982287 -0.18738 0
    outer loop
      vertex 26.9961 -10.1256 2
      vertex 26.9021 -10.618 2
      vertex 26.9961 -10.1256 -2
    endloop
  endfacet
  facet normal 0.998027 0.0627886 0
    outer loop
      vertex 26.9961 -10.1256 -2
      vertex 26.9882 -10 -2
      vertex 26.9882 -10 2
    endloop
  endfacet
  facet normal 0.998027 0.0627886 0
    outer loop
      vertex 26.9961 -10.1256 2
      vertex 26.9961 -10.1256 -2
      vertex 26.9882 -10 2
    endloop
  endfacet
  facet normal -1.83691e-16 -1 0
    outer loop
      vertex 27 -10 -2
      vertex 27 -10 2
      vertex 26.9882 -10 2
    endloop
  endfacet
  facet normal -1.83691e-16 -1 0
    outer loop
      vertex 26.9882 -10 -2
      vertex 27 -10 -2
      vertex 26.9882 -10 2
    endloop
  endfacet
  facet normal 1 0 0
    outer loop
      vertex 27 -10 2
      vertex 27 -10 -2
      vertex 27 10.05 -2
    endloop
  endfacet
  facet normal 1 0 0
    outer loop
      vertex 27 10.05 2
      vertex 27 -10 2
      vertex 27 10.05 -2
    endloop
  endfacet
  facet normal 0 1 0
    outer loop
      vertex 27 10.05 2
      vertex 27 10.05 -2
      vertex 26.9937 10.05 2
    endloop
  endfacet
  facet normal 0 1 0
    outer loop
      vertex 26.9937 10.05 2
      vertex 27 10.05 -2
      vertex 26.9937 10.05 -2
    endloop
  endfacet
  facet normal 0.992115 0.125334 0
    outer loop
      vertex 26.9937 10.05 -2
      vertex 26.9372 10.4974 -2
      vertex 26.9372 10.4974 2
    endloop
  endfacet
  facet normal 0.992115 0.125334 0
    outer loop
      vertex 26.9937 10.05 2
      vertex 26.9937 10.05 -2
      vertex 26.9372 10.4974 2
    endloop
  endfacet
  facet normal 0.929776 0.368125 0
    outer loop
      vertex 26.9372 10.4974 -2
      vertex 26.7526 10.9635 -2
      vertex 26.7526 10.9635 2
    endloop
  endfacet
  facet normal 0.929776 0.368125 0
    outer loop
      vertex 26.9372 10.4974 2
      vertex 26.9372 10.4974 -2
      vertex 26.7526 10.9635 2
    endloop
  endfacet
  facet normal 0.809017 0.587785 0
    outer loop
      vertex 26.7526 10.9635 -2
      vertex 26.4579 11.3691 -2
      vertex 26.4579 11.3691 2
    endloop
  endfacet
  facet normal 0.809017 0.587785 0
    outer loop
      vertex 26.7526 10.9635 2
      vertex 26.7526 10.9635 -2
      vertex 26.4579 11.3691 2
    endloop
  endfacet
  facet normal 0.637425 0.770512 0
    outer loop
      vertex 26.0717 11.6887 -2
      vertex 26.0717 11.6887 2
      vertex 26.4579 11.3691 -2
    endloop
  endfacet
  facet normal 0.637425 0.770512 0
    outer loop
      vertex 26.4579 11.3691 -2
      vertex 26.0717 11.6887 2
      vertex 26.4579 11.3691 2
    endloop
  endfacet
  facet normal 0.425779 0.904827 0
    outer loop
      vertex 25.618 11.9021 -2
      vertex 25.618 11.9021 2
      vertex 26.0717 11.6887 -2
    endloop
  endfacet
  facet normal 0.425779 0.904827 0
    outer loop
      vertex 26.0717 11.6887 -2
      vertex 25.618 11.9021 2
      vertex 26.0717 11.6887 2
    endloop
  endfacet
  facet normal 0.18738 0.982287 0
    outer loop
      vertex 25.1256 11.9961 -2
      vertex 25.1256 11.9961 2
      vertex 25.618 11.9021 -2
    endloop
  endfacet
  facet normal 0.18738 0.982287 0
    outer loop
      vertex 25.618 11.9021 -2
      vertex 25.1256 11.9961 2
      vertex 25.618 11.9021 2
    endloop
  endfacet
  facet normal -0.0627886 0.998027 0
    outer loop
      vertex 25 11.9882 -2
      vertex 25 11.9882 2
      vertex 25.1256 11.9961 -2
    endloop
  endfacet
  facet normal -0.0627886 0.998027 0
    outer loop
      vertex 25.1256 11.9961 -2
      vertex 25 11.9882 2
      vertex 25.1256 11.9961 2
    endloop
  endfacet
  facet normal 1 0 0
    outer loop
      vertex 25 12 -2
      vertex 25 12 2
      vertex 25 11.9882 2
    endloop
  endfacet
  facet normal 1 0 0
    outer loop
      vertex 25 11.9882 -2
      vertex 25 12 -2
      vertex 25 11.9882 2
    endloop
  endfacet
  facet normal 0 1 0
    outer loop
      vertex -25.05 12 -2
      vertex -25.05 12 2
      vertex 25 12 -2
    endloop
  endfacet
  facet normal 0 1 0
    outer loop
      vertex 25 12 -2
      vertex -25.05 12 2
      vertex 25 12 2
    endloop
  endfacet
  facet normal -1 6.12303e-17 0
    outer loop
      vertex -25.05 12 2
      vertex -25.05 12 -2
      vertex -25.05 11.9937 2
    endloop
  endfacet
  facet normal -1 6.12303e-17 0
    outer loop
      vertex -25.05 11.9937 2
      vertex -25.05 12 -2
      vertex -25.05 11.9937 -2
    endloop
  endfacet
  facet normal -0.125334 0.992115 0
    outer loop
      vertex -25.4974 11.9372 -2
      vertex -25.4974 11.9372 2
      vertex -25.05 11.9937 -2
    endloop
  endfacet
  facet normal -0.125334 0.992115 0
    outer loop
      vertex -25.05 11.9937 -2
      vertex -25.4974 11.9372 2
      vertex -25.05 11.9937 2
    endloop
  endfacet
  facet normal -0.368125 0.929776 0
    outer loop
      vertex -25.9635 11.7526 -2
      vertex -25.9635 11.7526 2
      vertex -25.4974 11.9372 -2
    endloop
  endfacet
  facet normal -0.368125 0.929776 0
    outer loop
      vertex -25.4974 11.9372 -2
      vertex -25.9635 11.7526 2
      vertex -25.4974 11.9372 2
    endloop
  endfacet
  facet normal -0.587785 0.809017 0
    outer loop
      vertex -26.3691 11.4579 -2
      vertex -26.3691 11.4579 2
      vertex -25.9635 11.7526 -2
    endloop
  endfacet
  facet normal -0.587785 0.809017 0
    outer loop
      vertex -25.9635 11.7526 -2
      vertex -26.3691 11.4579 2
      vertex -25.9635 11.7526 2
    endloop
  endfacet
  facet normal -0.770512 0.637425 0
    outer loop
      vertex -26.6887 11.0717 -2
      vertex -26.6887 11.0717 2
      vertex -26.3691 11.4579 -2
    endloop
  endfacet
  facet normal -0.770512 0.637425 0
    outer loop
      vertex -26.3691 11.4579 -2
      vertex -26.6887 11.0717 2
      vertex -26.3691 11.4579 2
    endloop
  endfacet
  facet normal -0.904827 0.425779 0
    outer loop
      vertex -26.9021 10.618 -2
      vertex -26.9021 10.618 2
      vertex -26.6887 11.0717 -2
    endloop
  endfacet
  facet normal -0.904827 0.425779 0
    outer loop
      vertex -26.6887 11.0717 -2
      vertex -26.9021 10.618 2
      vertex -26.6887 11.0717 2
    endloop
  endfacet
  facet normal -0.982287 0.18738 0
    outer loop
      vertex -26.9961 10.1256 -2
      vertex -26.9961 10.1256 2
      vertex -26.9021 10.618 -2
    endloop
  endfacet
  facet normal -0.982287 0.18738 0
    outer loop
      vertex -26.9021 10.618 -2
      vertex -26.9961 10.1256 2
      vertex -26.9021 10.618 2
    endloop
  endfacet
  facet normal -0.998027 -0.0627886 0
    outer loop
      vertex -26.9961 10.1256 -2
      vertex -26.9882 10 -2
      vertex -26.9961 10.1256 2
    endloop
  endfacet
  facet normal -0.998027 -0.0627886 0
    outer loop
      vertex -26.9961 10.1256 2
      vertex -26.9882 10 -2
      vertex -26.9882 10 2
    endloop
  endfacet
  facet normal 0.987688 -0.156435 0
    outer loop
      vertex 21.0979 8.61803 -2
      vertex 21.0979 8.61803 2
      vertex 21 8 2
    endloop
  endfacet
  facet normal 0.987688 -0.156435 0
    outer loop
      vertex 21 8 -2
      vertex 21.0979 8.61803 -2
      vertex 21 8 2
    endloop
  endfacet
  facet normal 0.987688 0.156435 0
    outer loop
      vertex 21 8 2
      vertex 21.0979 7.38197 2
      vertex 21.0979 7.38197 -2
    endloop
  endfacet
  facet normal 0.987688 0.156435 0
    outer loop
      vertex 21 8 -2
      vertex 21 8 2
      vertex 21.0979 7.38197 -2
    endloop
  endfacet
  facet normal 0.891007 -0.45399 0
    outer loop
      vertex 21.382 9.17557 -2
      vertex 21.382 9.17557 2
      vertex 21.0979 8.61803 2
    endloop
  endfacet
  facet normal 0.891007 -0.45399 0
    outer loop
      vertex 21.0979 8.61803 -2
      vertex 21.382 9.17557 -2
      vertex 21.0979 8.61803 2
    endloop
  endfacet
  facet normal 0.707107 -0.707107 0
    outer loop
      vertex 21.8244 9.61803 -2
      vertex 21.8244 9.61803 2
      vertex 21.382 9.17557 2
    endloop
  endfacet
  facet normal 0.707107 -0.707107 0
    outer loop
      vertex 21.382 9.17557 -2
      vertex 21.8244 9.61803 -2
      vertex 21.382 9.17557 2
    endloop
  endfacet
  facet normal 0.45399 -0.891007 0
    outer loop
      vertex 22.382 9.90211 -2
      vertex 22.382 9.90211 2
      vertex 21.8244 9.61803 2
    endloop
  endfacet
  facet normal 0.45399 -0.891007 0
    outer loop
      vertex 21.8244 9.61803 -2
      vertex 22.382 9.90211 -2
      vertex 21.8244 9.61803 2
    endloop
  endfacet
  facet normal 0.156435 -0.987688 0
    outer loop
      vertex 23 10 -2
      vertex 23 10 2
      vertex 22.382 9.90211 2
    endloop
  endfacet
  facet normal 0.156435 -0.987688 0
    outer loop
      vertex 22.382 9.90211 -2
      vertex 23 10 -2
      vertex 22.382 9.90211 2
    endloop
  endfacet
  facet normal -0.156435 -0.987688 0
    outer loop
      vertex 23.618 9.90211 -2
      vertex 23.618 9.90211 2
      vertex 23 10 2
    endloop
  endfacet
  facet normal -0.156435 -0.987688 0
    outer loop
      vertex 23 10 -2
      vertex 23.618 9.90211 -2
      vertex 23 10 2
    endloop
  endfacet
  facet normal -0.45399 -0.891007 0
    outer loop
      vertex 24.1756 9.61803 -2
      vertex 24.1756 9.61803 2
      vertex 23.618 9.90211 2
    endloop
  endfacet
  facet normal -0.45399 -0.891007 0
    outer loop
      vertex 23.618 9.90211 -2
      vertex 24.1756 9.61803 -2
      vertex 23.618 9.90211 2
    endloop
  endfacet
  facet normal -0.707107 -0.707107 0
    outer loop
      vertex 24.618 9.17557 -2
      vertex 24.618 9.17557 2
      vertex 24.1756 9.61803 2
    endloop
  endfacet
  facet normal -0.707107 -0.707107 0
    outer loop
      vertex 24.1756 9.61803 -2
      vertex 24.618 9.17557 -2
      vertex 24.1756 9.61803 2
    endloop
  endfacet
  facet normal -0.891007 -0.45399 0
    outer loop
      vertex 24.9021 8.61803 2
      vertex 24.618 9.17557 2
      vertex 24.9021 8.61803 -2
    endloop
  endfacet
  facet normal -0.891007 -0.45399 0
    outer loop
      vertex 24.9021 8.61803 -2
      vertex 24.618 9.17557 2
      vertex 24.618 9.17557 -2
    endloop
  endfacet
  facet normal -0.987688 -0.156435 0
    outer loop
      vertex 25 8 2
      vertex 24.9021 8.61803 2
      vertex 25 8 -2
    endloop
  endfacet
  facet normal -0.987688 -0.156435 0
    outer loop
      vertex 25 8 -2
      vertex 24.9021 8.61803 2
      vertex 24.9021 8.61803 -2
    endloop
  endfacet
  facet normal -0.987688 0.156435 0
    outer loop
      vertex 25 8 2
      vertex 25 8 -2
      vertex 24.9021 7.38197 2
    endloop
  endfacet
  facet normal -0.987688 0.156435 0
    outer loop
      vertex 24.9021 7.38197 2
      vertex 25 8 -2
      vertex 24.9021 7.38197 -2
    endloop
  endfacet
  facet normal -0.891007 0.45399 0
    outer loop
      vertex 24.9021 7.38197 2
      vertex 24.9021 7.38197 -2
      vertex 24.618 6.82443 2
    endloop
  endfacet
  facet normal -0.891007 0.45399 0
    outer loop
      vertex 24.618 6.82443 2
      vertex 24.9021 7.38197 -2
      vertex 24.618 6.82443 -2
    endloop
  endfacet
  facet normal -0.707107 0.707107 0
    outer loop
      vertex 24.618 6.82443 2
      vertex 24.618 6.82443 -2
      vertex 24.1756 6.38197 2
    endloop
  endfacet
  facet normal -0.707107 0.707107 0
    outer loop
      vertex 24.1756 6.38197 2
      vertex 24.618 6.82443 -2
      vertex 24.1756 6.38197 -2
    endloop
  endfacet
  facet normal -0.45399 0.891007 0
    outer loop
      vertex 24.1756 6.38197 2
      vertex 24.1756 6.38197 -2
      vertex 23.618 6.09789 2
    endloop
  endfacet
  facet normal -0.45399 0.891007 0
    outer loop
      vertex 23.618 6.09789 2
      vertex 24.1756 6.38197 -2
      vertex 23.618 6.09789 -2
    endloop
  endfacet
  facet normal -0.156435 0.987688 0
    outer loop
      vertex 23.618 6.09789 2
      vertex 23.618 6.09789 -2
      vertex 23 6 2
    endloop
  endfacet
  facet normal -0.156435 0.987688 0
    outer loop
      vertex 23 6 2
      vertex 23.618 6.09789 -2
      vertex 23 6 -2
    endloop
  endfacet
  facet normal 0.156435 0.987688 0
    outer loop
      vertex 23 6 2
      vertex 23 6 -2
      vertex 22.382 6.09789 2
    endloop
  endfacet
  facet normal 0.156435 0.987688 0
    outer loop
      vertex 22.382 6.09789 2
      vertex 23 6 -2
      vertex 22.382 6.09789 -2
    endloop
  endfacet
  facet normal 0.45399 0.891007 0
    outer loop
      vertex 22.382 6.09789 2
      vertex 22.382 6.09789 -2
      vertex 21.8244 6.38197 2
    endloop
  endfacet
  facet normal 0.45399 0.891007 0
    outer loop
      vertex 21.8244 6.38197 2
      vertex 22.382 6.09789 -2
      vertex 21.8244 6.38197 -2
    endloop
  endfacet
  facet normal 0.707107 0.707107 0
    outer loop
      vertex 21.8244 6.38197 2
      vertex 21.8244 6.38197 -2
      vertex 21.382 6.82443 2
    endloop
  endfacet
  facet normal 0.707107 0.707107 0
    outer loop
      vertex 21.382 6.82443 2
      vertex 21.8244 6.38197 -2
      vertex 21.382 6.82443 -2
    endloop
  endfacet
  facet normal 0.891007 0.45399 0
    outer loop
      vertex 21.0979 7.38197 2
      vertex 21.382 6.82443 2
      vertex 21.382 6.82443 -2
    endloop
  endfacet
  facet normal 0.891007 0.45399 0
    outer loop
      vertex 21.0979 7.38197 -2
      vertex 21.0979 7.38197 2
      vertex 21.382 6.82443 -2
    endloop
  endfacet
  facet normal -1 0 0
    outer loop
      vertex -23 -9 2
      vertex -23 -9 6
      vertex -23 5.0002 2
    endloop
  endfacet
  facet normal -1 0 0
    outer loop
      vertex -23 5.0002 2
      vertex -23 -9 6
      vertex -23 5.0002 6
    endloop
  endfacet
  facet normal 0 1 0
    outer loop
      vertex -23 5.0002 2
      vertex -23 5.0002 6
      vertex -12.9998 5.0002 2
    endloop
  endfacet
  facet normal 0 1 0
    outer loop
      vertex -12.9998 5.0002 2
      vertex -23 5.0002 6
      vertex -12.9998 5.0002 6
    endloop
  endfacet
  facet normal 0 -1 0
    outer loop
      vertex -23 -9 6
      vertex -23 -9 2
      vertex -20.9998 -9 2
    endloop
  endfacet
  facet normal 0 -1 0
    outer loop
      vertex -20.9998 -9 6
      vertex -23 -9 6
      vertex -20.9998 -9 2
    endloop
  endfacet
  facet normal 1 0 0
    outer loop
      vertex -20.9998 -9 6
      vertex -20.9998 -9 2
      vertex -20.9998 -3 2
    endloop
  endfacet
  facet normal 1 0 0
    outer loop
      vertex -20.9998 -3 6
      vertex -20.9998 -9 6
      vertex -20.9998 -3 2
    endloop
  endfacet
  facet normal 0 -1 0
    outer loop
      vertex -20.9998 -3 6
      vertex -20.9998 -3 2
      vertex -14.9998 -3 2
    endloop
  endfacet
  facet normal 0 -1 0
    outer loop
      vertex -14.9998 -3 6
      vertex -20.9998 -3 6
      vertex -14.9998 -3 2
    endloop
  endfacet
  facet normal 1 0 0
    outer loop
      vertex -14.9998 -3 6
      vertex -14.9998 -3 2
      vertex -14.9998 -0.9998 2
    endloop
  endfacet
  facet normal 1 0 0
    outer loop
      vertex -14.9998 -0.9998 6
      vertex -14.9998 -3 6
      vertex -14.9998 -0.9998 2
    endloop
  endfacet
  facet normal 0 1 0
    outer loop
      vertex -20.9998 -0.9998 2
      vertex -20.9998 -0.9998 6
      vertex -14.9998 -0.9998 2
    endloop
  endfacet
  facet normal 0 1 0
    outer loop
      vertex -14.9998 -0.9998 2
      vertex -20.9998 -0.9998 6
      vertex -14.9998 -0.9998 6
    endloop
  endfacet
  facet normal 1 0 0
    outer loop
      vertex -20.9998 -0.9998 6
      vertex -20.9998 -0.9998 2
      vertex -20.9998 3 2
    endloop
  endfacet
  facet normal 1 0 0
    outer loop
      vertex -20.9998 3 6
      vertex -20.9998 -0.9998 6
      vertex -20.9998 3 2
    endloop
  endfacet
  facet normal 0 -1 0
    outer loop
      vertex -20.9998 3 6
      vertex -20.9998 3 2
      vertex -12.9998 3 2
    endloop
  endfacet
  facet normal 0 -1 0
    outer loop
      vertex -12.9998 3 6
      vertex -20.9998 3 6
      vertex -12.9998 3 2
    endloop
  endfacet
  facet normal 1 0 0
    outer loop
      vertex -12.9998 3 6
      vertex -12.9998 3 2
      vertex -12.9998 5.0002 2
    endloop
  endfacet
  facet normal 1 0 0
    outer loop
      vertex -12.9998 5.0002 6
      vertex -12.9998 3 6
      vertex -12.9998 5.0002 2
    endloop
  endfacet
  facet normal -1 0 0
    outer loop
      vertex -11 -9 2
      vertex -11 -9 6
      vertex -11 1.0002 2
    endloop
  endfacet
  facet normal -1 0 0
    outer loop
      vertex -11 1.0002 2
      vertex -11 -9 6
      vertex -11 1.0002 6
    endloop
  endfacet
  facet normal 0 1 0
    outer loop
      vertex -11 1.0002 2
      vertex -11 1.0002 6
      vertex -8.9998 1.0002 2
    endloop
  endfacet
  facet normal 0 1 0
    outer loop
      vertex -8.9998 1.0002 2
      vertex -11 1.0002 6
      vertex -8.9998 1.0002 6
    endloop
  endfacet
  facet normal 0 -1 0
    outer loop
      vertex -11 -9 6
      vertex -11 -9 2
      vertex -8.9998 -9 2
    endloop
  endfacet
  facet normal 0 -1 0
    outer loop
      vertex -8.9998 -9 6
      vertex -11 -9 6
      vertex -8.9998 -9 2
    endloop
  endfacet
  facet normal 1 0 0
    outer loop
      vertex -8.9998 -9 6
      vertex -8.9998 -9 2
      vertex -8.9998 -3 2
    endloop
  endfacet
  facet normal 1 0 0
    outer loop
      vertex -8.9998 -3 6
      vertex -8.9998 -9 6
      vertex -8.9998 -3 2
    endloop
  endfacet
  facet normal 0 -1 0
    outer loop
      vertex -8.9998 -3 6
      vertex -8.9998 -3 2
      vertex -6.9998 -3 2
    endloop
  endfacet
  facet normal 0 -1 0
    outer loop
      vertex -6.9998 -3 6
      vertex -8.9998 -3 6
      vertex -6.9998 -3 2
    endloop
  endfacet
  facet normal 1 0 0
    outer loop
      vertex -6.9998 -3 6
      vertex -6.9998 -3 2
      vertex -6.9998 -1 2
    endloop
  endfacet
  facet normal 1 0 0
    outer loop
      vertex -6.9998 -1 6
      vertex -6.9998 -3 6
      vertex -6.9998 -1 2
    endloop
  endfacet
  facet normal 0 -1 0
    outer loop
      vertex -6.9998 -1 6
      vertex -6.9998 -1 2
      vertex -3 -1 2
    endloop
  endfacet
  facet normal 0 -1 0
    outer loop
      vertex -3 -1 6
      vertex -6.9998 -1 6
      vertex -3 -1 2
    endloop
  endfacet
  facet normal -1 0 0
    outer loop
      vertex -3 -3 2
      vertex -3 -3 6
      vertex -3 -1 2
    endloop
  endfacet
  facet normal -1 0 0
    outer loop
      vertex -3 -1 2
      vertex -3 -3 6
      vertex -3 -1 6
    endloop
  endfacet
  facet normal 0 -1 0
    outer loop
      vertex -3 -3 6
      vertex -3 -3 2
      vertex -0.9998 -3 2
    endloop
  endfacet
  facet normal 0 -1 0
    outer loop
      vertex -0.9998 -3 6
      vertex -3 -3 6
      vertex -0.9998 -3 2
    endloop
  endfacet
  facet normal 1 0 0
    outer loop
      vertex -0.9998 -3 6
      vertex -0.9998 -3 2
      vertex -0.9998 -0.9998 2
    endloop
  endfacet
  facet normal 1 0 0
    outer loop
      vertex -0.9998 -0.9998 6
      vertex -0.9998 -3 6
      vertex -0.9998 -0.9998 2
    endloop
  endfacet
  facet normal 0 1 0
    outer loop
      vertex -2.9998 -0.9998 2
      vertex -2.9998 -0.9998 6
      vertex -0.9998 -0.9998 2
    endloop
  endfacet
  facet normal 0 1 0
    outer loop
      vertex -0.9998 -0.9998 2
      vertex -2.9998 -0.9998 6
      vertex -0.9998 -0.9998 6
    endloop
  endfacet
  facet normal 1 0 0
    outer loop
      vertex -2.9998 -0.9998 6
      vertex -2.9998 -0.9998 2
      vertex -2.9998 1.0002 2
    endloop
  endfacet
  facet normal 1 0 0
    outer loop
      vertex -2.9998 1.0002 6
      vertex -2.9998 -0.9998 6
      vertex -2.9998 1.0002 2
    endloop
  endfacet
  facet normal 0 1 0
    outer loop
      vertex -7 1.0002 2
      vertex -7 1.0002 6
      vertex -2.9998 1.0002 2
    endloop
  endfacet
  facet normal 0 1 0
    outer loop
      vertex -2.9998 1.0002 2
      vertex -7 1.0002 6
      vertex -2.9998 1.0002 6
    endloop
  endfacet
  facet normal -1 0 0
    outer loop
      vertex -7 -0.9998 2
      vertex -7 -0.9998 6
      vertex -7 1.0002 2
    endloop
  endfacet
  facet normal -1 0 0
    outer loop
      vertex -7 1.0002 2
      vertex -7 -0.9998 6
      vertex -7 1.0002 6
    endloop
  endfacet
  facet normal 0 1 0
    outer loop
      vertex -8.9998 -0.9998 2
      vertex -8.9998 -0.9998 6
      vertex -7 -0.9998 2
    endloop
  endfacet
  facet normal 0 1 0
    outer loop
      vertex -7 -0.9998 2
      vertex -8.9998 -0.9998 6
      vertex -7 -0.9998 6
    endloop
  endfacet
  facet normal 1 0 0
    outer loop
      vertex -8.9998 -0.9998 6
      vertex -8.9998 -0.9998 2
      vertex -8.9998 1.0002 2
    endloop
  endfacet
  facet normal 1 0 0
    outer loop
      vertex -8.9998 1.0002 6
      vertex -8.9998 -0.9998 6
      vertex -8.9998 1.0002 2
    endloop
  endfacet
  facet normal -1 0 0
    outer loop
      vertex 1 -7 2
      vertex 1 -7 6
      vertex 1 -0.9998 2
    endloop
  endfacet
  facet normal -1 0 0
    outer loop
      vertex 1 -0.9998 2
      vertex 1 -7 6
      vertex 1 -0.9998 6
    endloop
  endfacet
  facet normal 0 1 0
    outer loop
      vertex 1 -0.9998 2
      vertex 1 -0.9998 6
      vertex 3 -0.9998 2
    endloop
  endfacet
  facet normal 0 1 0
    outer loop
      vertex 3 -0.9998 2
      vertex 1 -0.9998 6
      vertex 3 -0.9998 6
    endloop
  endfacet
  facet normal 0 -1 0
    outer loop
      vertex 1 -7 6
      vertex 1 -7 2
      vertex 3 -7 2
    endloop
  endfacet
  facet normal 0 -1 0
    outer loop
      vertex 3 -7 6
      vertex 1 -7 6
      vertex 3 -7 2
    endloop
  endfacet
  facet normal -1 0 0
    outer loop
      vertex 3 -9 2
      vertex 3 -9 6
      vertex 3 -7 2
    endloop
  endfacet
  facet normal -1 0 0
    outer loop
      vertex 3 -7 2
      vertex 3 -9 6
      vertex 3 -7 6
    endloop
  endfacet
  facet normal 0 -1 0
    outer loop
      vertex 3 -9 6
      vertex 3 -9 2
      vertex 9.0002 -9 2
    endloop
  endfacet
  facet normal 0 -1 0
    outer loop
      vertex 9.0002 -9 6
      vertex 3 -9 6
      vertex 9.0002 -9 2
    endloop
  endfacet
  facet normal 1 0 0
    outer loop
      vertex 9.0002 -9 6
      vertex 9.0002 -9 2
      vertex 9.0002 -6.9998 2
    endloop
  endfacet
  facet normal 1 0 0
    outer loop
      vertex 9.0002 -6.9998 6
      vertex 9.0002 -9 6
      vertex 9.0002 -6.9998 2
    endloop
  endfacet
  facet normal 0 1 0
    outer loop
      vertex 3.0002 -6.9998 2
      vertex 3.0002 -6.9998 6
      vertex 9.0002 -6.9998 2
    endloop
  endfacet
  facet normal 0 1 0
    outer loop
      vertex 9.0002 -6.9998 2
      vertex 3.0002 -6.9998 6
      vertex 9.0002 -6.9998 6
    endloop
  endfacet
  facet normal 1 0 0
    outer loop
      vertex 3.0002 -6.9998 6
      vertex 3.0002 -6.9998 2
      vertex 3.0002 -5 2
    endloop
  endfacet
  facet normal 1 0 0
    outer loop
      vertex 3.0002 -5 6
      vertex 3.0002 -6.9998 6
      vertex 3.0002 -5 2
    endloop
  endfacet
  facet normal 0 -1 0
    outer loop
      vertex 3.0002 -5 6
      vertex 3.0002 -5 2
      vertex 11.0002 -5 2
    endloop
  endfacet
  facet normal 0 -1 0
    outer loop
      vertex 11.0002 -5 6
      vertex 3.0002 -5 6
      vertex 11.0002 -5 2
    endloop
  endfacet
  facet normal 1 0 0
    outer loop
      vertex 11.0002 -5 6
      vertex 11.0002 -5 2
      vertex 11.0002 -0.9998 2
    endloop
  endfacet
  facet normal 1 0 0
    outer loop
      vertex 11.0002 -0.9998 6
      vertex 11.0002 -5 6
      vertex 11.0002 -0.9998 2
    endloop
  endfacet
  facet normal 0 1 0
    outer loop
      vertex 9.0002 -0.9998 2
      vertex 9.0002 -0.9998 6
      vertex 11.0002 -0.9998 2
    endloop
  endfacet
  facet normal 0 1 0
    outer loop
      vertex 11.0002 -0.9998 2
      vertex 9.0002 -0.9998 6
      vertex 11.0002 -0.9998 6
    endloop
  endfacet
  facet normal 1 0 0
    outer loop
      vertex 9.0002 -0.9998 6
      vertex 9.0002 -0.9998 2
      vertex 9.0002 1.0002 2
    endloop
  endfacet
  facet normal 1 0 0
    outer loop
      vertex 9.0002 1.0002 6
      vertex 9.0002 -0.9998 6
      vertex 9.0002 1.0002 2
    endloop
  endfacet
  facet normal 0 1 0
    outer loop
      vertex 3 1.0002 2
      vertex 3 1.0002 6
      vertex 9.0002 1.0002 2
    endloop
  endfacet
  facet normal 0 1 0
    outer loop
      vertex 9.0002 1.0002 2
      vertex 3 1.0002 6
      vertex 9.0002 1.0002 6
    endloop
  endfacet
  facet normal -1 0 0
    outer loop
      vertex 3 -0.9998 2
      vertex 3 -0.9998 6
      vertex 3 1.0002 2
    endloop
  endfacet
  facet normal -1 0 0
    outer loop
      vertex 3 1.0002 2
      vertex 3 -0.9998 6
      vertex 3 1.0002 6
    endloop
  endfacet
  facet normal -1 0 0
    outer loop
      vertex 13 -7 2
      vertex 13 -7 6
      vertex 13 -0.9998 2
    endloop
  endfacet
  facet normal -1 0 0
    outer loop
      vertex 13 -0.9998 2
      vertex 13 -7 6
      vertex 13 -0.9998 6
    endloop
  endfacet
  facet normal 0 1 0
    outer loop
      vertex 13 -0.9998 2
      vertex 13 -0.9998 6
      vertex 15 -0.9998 2
    endloop
  endfacet
  facet normal 0 1 0
    outer loop
      vertex 15 -0.9998 2
      vertex 13 -0.9998 6
      vertex 15 -0.9998 6
    endloop
  endfacet
  facet normal 0 -1 0
    outer loop
      vertex 13 -7 6
      vertex 13 -7 2
      vertex 15 -7 2
    endloop
  endfacet
  facet normal 0 -1 0
    outer loop
      vertex 15 -7 6
      vertex 13 -7 6
      vertex 15 -7 2
    endloop
  endfacet
  facet normal -1 0 0
    outer loop
      vertex 15 -9 2
      vertex 15 -9 6
      vertex 15 -7 2
    endloop
  endfacet
  facet normal -1 0 0
    outer loop
      vertex 15 -7 2
      vertex 15 -9 6
      vertex 15 -7 6
    endloop
  endfacet
  facet normal 0 -1 0
    outer loop
      vertex 15 -9 6
      vertex 15 -9 2
      vertex 21.0002 -9 2
    endloop
  endfacet
  facet normal 0 -1 0
    outer loop
      vertex 21.0002 -9 6
      vertex 15 -9 6
      vertex 21.0002 -9 2
    endloop
  endfacet
  facet normal 1 0 0
    outer loop
      vertex 21.0002 -9 6
      vertex 21.0002 -9 2
      vertex 21.0002 -6.9998 2
    endloop
  endfacet
  facet normal 1 0 0
    outer loop
      vertex 21.0002 -6.9998 6
      vertex 21.0002 -9 6
      vertex 21.0002 -6.9998 2
    endloop
  endfacet
  facet normal 0 1 0
    outer loop
      vertex 15.0002 -6.9998 2
      vertex 15.0002 -6.9998 6
      vertex 21.0002 -6.9998 2
    endloop
  endfacet
  facet normal 0 1 0
    outer loop
      vertex 21.0002 -6.9998 2
      vertex 15.0002 -6.9998 6
      vertex 21.0002 -6.9998 6
    endloop
  endfacet
  facet normal 1 0 0
    outer loop
      vertex 15.0002 -6.9998 6
      vertex 15.0002 -6.9998 2
      vertex 15.0002 -5 2
    endloop
  endfacet
  facet normal 1 0 0
    outer loop
      vertex 15.0002 -5 6
      vertex 15.0002 -6.9998 6
      vertex 15.0002 -5 2
    endloop
  endfacet
  facet normal 0 -1 0
    outer loop
      vertex 15.0002 -5 6
      vertex 15.0002 -5 2
      vertex 23.0002 -5 2
    endloop
  endfacet
  facet normal 0 -1 0
    outer loop
      vertex 23.0002 -5 6
      vertex 15.0002 -5 6
      vertex 23.0002 -5 2
    endloop
  endfacet
  facet normal 1 0 0
    outer loop
      vertex 23.0002 -5 6
      vertex 23.0002 -5 2
      vertex 23.0002 -0.9998 2
    endloop
  endfacet
  facet normal 1 0 0
    outer loop
      vertex 23.0002 -0.9998 6
      vertex 23.0002 -5 6
      vertex 23.0002 -0.9998 2
    endloop
  endfacet
  facet normal 0 1 0
    outer loop
      vertex 21.0002 -0.9998 2
      vertex 21.0002 -0.9998 6
      vertex 23.0002 -0.9998 2
    endloop
  endfacet
  facet normal 0 1 0
    outer loop
      vertex 23.0002 -0.9998 2
      vertex 21.0002 -0.9998 6
      vertex 23.0002 -0.9998 6
    endloop
  endfacet
  facet normal 1 0 0
    outer loop
      vertex 21.0002 -0.9998 6
      vertex 21.0002 -0.9998 2
      vertex 21.0002 1.0002 2
    endloop
  endfacet
  facet normal 1 0 0
    outer loop
      vertex 21.0002 1.0002 6
      vertex 21.0002 -0.9998 6
      vertex 21.0002 1.0002 2
    endloop
  endfacet
  facet normal 0 1 0
    outer loop
      vertex 15 1.0002 2
      vertex 15 1.0002 6
      vertex 21.0002 1.0002 2
    endloop
  endfacet
  facet normal 0 1 0
    outer loop
      vertex 21.0002 1.0002 2
      vertex 15 1.0002 6
      vertex 21.0002 1.0002 6
    endloop
  endfacet
  facet normal -1 0 0
    outer loop
      vertex 15 -0.9998 2
      vertex 15 -0.9998 6
      vertex 15 1.0002 2
    endloop
  endfacet
  facet normal -1 0 0
    outer loop
      vertex 15 1.0002 2
      vertex 15 -0.9998 6
      vertex 15 1.0002 6
    endloop
  endfacet
  facet normal 0 0 1
    outer loop
      vertex -23 5.0002 6
      vertex -23 -9 6
      vertex -20.9998 -9 6
    endloop
  endfacet
  facet normal 0 0 1
    outer loop
      vertex -20.9998 -0.9998 6
      vertex -23 5.0002 6
      vertex -20.9998 -3 6
    endloop
  endfacet
  facet normal 0 0 1
    outer loop
      vertex -20.9998 -3 6
      vertex -23 5.0002 6
      vertex -20.9998 -9 6
    endloop
  endfacet
  facet normal 0 0 1
    outer loop
      vertex -20.9998 3 6
      vertex -23 5.0002 6
      vertex -20.9998 -0.9998 6
    endloop
  endfacet
  facet normal 0 0 1
    outer loop
      vertex -14.9998 -3 6
      vertex -20.9998 -0.9998 6
      vertex -20.9998 -3 6
    endloop
  endfacet
  facet normal 0 0 1
    outer loop
      vertex -20.9998 3 6
      vertex -12.9998 3 6
      vertex -23 5.0002 6
    endloop
  endfacet
  facet normal 0 0 1
    outer loop
      vertex -12.9998 5.0002 6
      vertex -23 5.0002 6
      vertex -12.9998 3 6
    endloop
  endfacet
  facet normal 0 0 1
    outer loop
      vertex -14.9998 -0.9998 6
      vertex -20.9998 -0.9998 6
      vertex -14.9998 -3 6
    endloop
  endfacet
  facet normal 0 0 1
    outer loop
      vertex -11 1.0002 6
      vertex -11 -9 6
      vertex -8.9998 -9 6
    endloop
  endfacet
  facet normal 0 0 1
    outer loop
      vertex -6.9998 -3 6
      vertex -11 1.0002 6
      vertex -8.9998 -3 6
    endloop
  endfacet
  facet normal 0 0 1
    outer loop
      vertex -8.9998 -3 6
      vertex -11 1.0002 6
      vertex -8.9998 -9 6
    endloop
  endfacet
  facet normal 0 0 1
    outer loop
      vertex -8.9998 -0.9998 6
      vertex -11 1.0002 6
      vertex -6.9998 -3 6
    endloop
  endfacet
  facet normal 0 0 1
    outer loop
      vertex -8.9998 -0.9998 6
      vertex -8.9998 1.0002 6
      vertex -11 1.0002 6
    endloop
  endfacet
  facet normal 0 0 1
    outer loop
      vertex -7 -0.9998 6
      vertex -8.9998 -0.9998 6
      vertex -6.9998 -1 6
    endloop
  endfacet
  facet normal 0 0 1
    outer loop
      vertex -0.9998 -3 6
      vertex -3 -1 6
      vertex -3 -3 6
    endloop
  endfacet
  facet normal 0 0 1
    outer loop
      vertex -0.9998 -0.9998 6
      vertex -3 -1 6
      vertex -0.9998 -3 6
    endloop
  endfacet
  facet normal 0 0 1
    outer loop
      vertex -7 1.0002 6
      vertex -3 -1 6
      vertex -2.9998 -0.9998 6
    endloop
  endfacet
  facet normal 0 0 1
    outer loop
      vertex -0.9998 -0.9998 6
      vertex -2.9998 -0.9998 6
      vertex -3 -1 6
    endloop
  endfacet
  facet normal 0 0 1
    outer loop
      vertex -7 1.0002 6
      vertex -7 -0.9998 6
      vertex -3 -1 6
    endloop
  endfacet
  facet normal 0 0 1
    outer loop
      vertex -3 -1 6
      vertex -7 -0.9998 6
      vertex -6.9998 -1 6
    endloop
  endfacet
  facet normal 0 0 1
    outer loop
      vertex -6.9998 -1 6
      vertex -8.9998 -0.9998 6
      vertex -6.9998 -3 6
    endloop
  endfacet
  facet normal 0 0 1
    outer loop
      vertex -2.9998 -0.9998 6
      vertex -2.9998 1.0002 6
      vertex -7 1.0002 6
    endloop
  endfacet
  facet normal 0 0 1
    outer loop
      vertex 1 -0.9998 6
      vertex 1 -7 6
      vertex 3 -7 6
    endloop
  endfacet
  facet normal 0 0 1
    outer loop
      vertex 3.0002 -6.9998 6
      vertex 1 -0.9998 6
      vertex 3 -7 6
    endloop
  endfacet
  facet normal 0 0 1
    outer loop
      vertex 3 -9 6
      vertex 9.0002 -9 6
      vertex 3 -7 6
    endloop
  endfacet
  facet normal 0 0 1
    outer loop
      vertex 3 1.0002 6
      vertex 3 -0.9998 6
      vertex 9.0002 1.0002 6
    endloop
  endfacet
  facet normal 0 0 1
    outer loop
      vertex 3.0002 -2.9998 6
      vertex 3.0002 -1 6
      vertex 1 -0.9998 6
    endloop
  endfacet
  facet normal 0 0 1
    outer loop
      vertex 9.0002 -9 6
      vertex 3.0002 -6.9998 6
      vertex 3 -7 6
    endloop
  endfacet
  facet normal 0 0 1
    outer loop
      vertex 3.0002 -5 6
      vertex 1 -0.9998 6
      vertex 3.0002 -6.9998 6
    endloop
  endfacet
  facet normal 0 0 1
    outer loop
      vertex 9 -1 6
      vertex 9.0002 -0.9998 6
      vertex 3 -0.9998 6
    endloop
  endfacet
  facet normal 0 0 1
    outer loop
      vertex 11.0002 -5 6
      vertex 11.0002 -0.9998 6
      vertex 9.0002 -0.9998 6
    endloop
  endfacet
  facet normal 0 0 1
    outer loop
      vertex 3.0002 -1 6
      vertex 3 -0.9998 6
      vertex 1 -0.9998 6
    endloop
  endfacet
  facet normal 0 0 1
    outer loop
      vertex 9.0002 -0.9998 6
      vertex 9.0002 1.0002 6
      vertex 3 -0.9998 6
    endloop
  endfacet
  facet normal 0 0 1
    outer loop
      vertex 3.0002 -5 6
      vertex 11.0002 -5 6
      vertex 3.0002 -2.9998 6
    endloop
  endfacet
  facet normal 0 0 1
    outer loop
      vertex 9 -2.9998 6
      vertex 3.0002 -2.9998 6
      vertex 11.0002 -5 6
    endloop
  endfacet
  facet normal 0 0 1
    outer loop
      vertex 3.0002 -1 6
      vertex 9 -1 6
      vertex 3 -0.9998 6
    endloop
  endfacet
  facet normal 0 0 1
    outer loop
      vertex 11.0002 -5 6
      vertex 9.0002 -0.9998 6
      vertex 9 -1 6
    endloop
  endfacet
  facet normal 0 0 1
    outer loop
      vertex 11.0002 -5 6
      vertex 9 -1 6
      vertex 9 -2.9998 6
    endloop
  endfacet
  facet normal 0 0 1
    outer loop
      vertex 3.0002 -5 6
      vertex 3.0002 -2.9998 6
      vertex 1 -0.9998 6
    endloop
  endfacet
  facet normal 0 0 1
    outer loop
      vertex 9.0002 -6.9998 6
      vertex 3.0002 -6.9998 6
      vertex 9.0002 -9 6
    endloop
  endfacet
  facet normal 0 0 1
    outer loop
      vertex 13 -0.9998 6
      vertex 13 -7 6
      vertex 15 -7 6
    endloop
  endfacet
  facet normal 0 0 1
    outer loop
      vertex 15.0002 -6.9998 6
      vertex 13 -0.9998 6
      vertex 15 -7 6
    endloop
  endfacet
  facet normal 0 0 1
    outer loop
      vertex 15 -9 6
      vertex 21.0002 -9 6
      vertex 15 -7 6
    endloop
  endfacet
  facet normal 0 0 1
    outer loop
      vertex 15 1.0002 6
      vertex 15 -0.9998 6
      vertex 21.0002 1.0002 6
    endloop
  endfacet
  facet normal 0 0 1
    outer loop
      vertex 15.0002 -2.9998 6
      vertex 15.0002 -1 6
      vertex 13 -0.9998 6
    endloop
  endfacet
  facet normal 0 0 1
    outer loop
      vertex 21.0002 -9 6
      vertex 15.0002 -6.9998 6
      vertex 15 -7 6
    endloop
  endfacet
  facet normal 0 0 1
    outer loop
      vertex 15.0002 -5 6
      vertex 13 -0.9998 6
      vertex 15.0002 -6.9998 6
    endloop
  endfacet
  facet normal 0 0 1
    outer loop
      vertex 21 -1 6
      vertex 21.0002 -0.9998 6
      vertex 15 -0.9998 6
    endloop
  endfacet
  facet normal 0 0 1
    outer loop
      vertex 23.0002 -5 6
      vertex 23.0002 -0.9998 6
      vertex 21.0002 -0.9998 6
    endloop
  endfacet
  facet normal 0 0 1
    outer loop
      vertex 15.0002 -1 6
      vertex 15 -0.9998 6
      vertex 13 -0.9998 6
    endloop
  endfacet
  facet normal 0 0 1
    outer loop
      vertex 21.0002 -0.9998 6
      vertex 21.0002 1.0002 6
      vertex 15 -0.9998 6
    endloop
  endfacet
  facet normal 0 0 1
    outer loop
      vertex 15.0002 -5 6
      vertex 23.0002 -5 6
      vertex 15.0002 -2.9998 6
    endloop
  endfacet
  facet normal 0 0 1
    outer loop
      vertex 21 -2.9998 6
      vertex 15.0002 -2.9998 6
      vertex 23.0002 -5 6
    endloop
  endfacet
  facet normal 0 0 1
    outer loop
      vertex 15.0002 -1 6
      vertex 21 -1 6
      vertex 15 -0.9998 6
    endloop
  endfacet
  facet normal 0 0 1
    outer loop
      vertex 23.0002 -5 6
      vertex 21.0002 -0.9998 6
      vertex 21 -1 6
    endloop
  endfacet
  facet normal 0 0 1
    outer loop
      vertex 23.0002 -5 6
      vertex 21 -1 6
      vertex 21 -2.9998 6
    endloop
  endfacet
  facet normal 0 0 1
    outer loop
      vertex 15.0002 -5 6
      vertex 15.0002 -2.9998 6
      vertex 13 -0.9998 6
    endloop
  endfacet
  facet normal 0 0 1
    outer loop
      vertex 21.0002 -6.9998 6
      vertex 15.0002 -6.9998 6
      vertex 21.0002 -9 6
    endloop
  endfacet
  facet normal 1 0 0
    outer loop
      vertex 3.0002 -2.9998 6
      vertex 3.0002 -2.9998 2
      vertex 3.0002 -1 2
    endloop
  endfacet
  facet normal 1 0 0
    outer loop
      vertex 3.0002 -1 6
      vertex 3.0002 -2.9998 6
      vertex 3.0002 -1 2
    endloop
  endfacet
  facet normal 0 1 0
    outer loop
      vertex 3.0002 -2.9998 2
      vertex 3.0002 -2.9998 6
      vertex 9 -2.9998 2
    endloop
  endfacet
  facet normal 0 1 0
    outer loop
      vertex 9 -2.9998 2
      vertex 3.0002 -2.9998 6
      vertex 9 -2.9998 6
    endloop
  endfacet
  facet normal -1 0 0
    outer loop
      vertex 9 -2.9998 2
      vertex 9 -2.9998 6
      vertex 9 -1 2
    endloop
  endfacet
  facet normal -1 0 0
    outer loop
      vertex 9 -1 2
      vertex 9 -2.9998 6
      vertex 9 -1 6
    endloop
  endfacet
  facet normal 0 -1 0
    outer loop
      vertex 3.0002 -1 6
      vertex 3.0002 -1 2
      vertex 9 -1 2
    endloop
  endfacet
  facet normal 0 -1 0
    outer loop
      vertex 9 -1 6
      vertex 3.0002 -1 6
      vertex 9 -1 2
    endloop
  endfacet
  facet normal 1 0 0
    outer loop
      vertex 15.0002 -2.9998 6
      vertex 15.0002 -2.9998 2
      vertex 15.0002 -1 2
    endloop
  endfacet
  facet normal 1 0 0
    outer loop
      vertex 15.0002 -1 6
      vertex 15.0002 -2.9998 6
      vertex 15.0002 -1 2
    endloop
  endfacet
  facet normal 0 1 0
    outer loop
      vertex 15.0002 -2.9998 2
      vertex 15.0002 -2.9998 6
      vertex 21 -2.9998 2
    endloop
  endfacet
  facet normal 0 1 0
    outer loop
      vertex 21 -2.9998 2
      vertex 15.0002 -2.9998 6
      vertex 21 -2.9998 6
    endloop
  endfacet
  facet normal -1 0 0
    outer loop
      vertex 21 -2.9998 2
      vertex 21 -2.9998 6
      vertex 21 -1 2
    endloop
  endfacet
  facet normal -1 0 0
    outer loop
      vertex 21 -1 2
      vertex 21 -2.9998 6
      vertex 21 -1 6
    endloop
  endfacet
  facet normal 0 -1 0
    outer loop
      vertex 15.0002 -1 6
      vertex 15.0002 -1 2
      vertex 21 -1 2
    endloop
  endfacet
  facet normal 0 -1 0
    outer loop
      vertex 21 -1 6
      vertex 15.0002 -1 6
      vertex 21 -1 2
    endloop
  endfacet
  facet normal 0 0 1
    outer loop
      vertex 9 -2.9998 2
      vertex 9 -1 2
      vertex 3.0002 -1 2
    endloop
  endfacet
  facet normal 0 0 1
    outer loop
      vertex 3.0002 -2.9998 2
      vertex 9 -2.9998 2
      vertex 3.0002 -1 2
    endloop
  endfacet
  facet normal 0 0 1
    outer loop
      vertex 21 -2.9998 2
      vertex 21 -1 2
      vertex 15.0002 -1 2
    endloop
  endfacet
  facet normal 0 0 1
    outer loop
      vertex 15.0002 -2.9998 2
      vertex 21 -2.9998 2
      vertex 15.0002 -1 2
    endloop
  endfacet
endsolid OpenSCAD_Model
